<?xml version="1.0" encoding="utf-8"?>
<!-- Generator: Adobe Illustrator 25.2.1, SVG Export Plug-In . SVG Version: 6.00 Build 0)  -->
<svg version="1.1" id="Layer_1" xmlns="http://www.w3.org/2000/svg" xmlns:xlink="http://www.w3.org/1999/xlink" x="0px" y="0px"
	 viewBox="0 0 318.7 131.8" style="enable-background:new 0 0 318.7 131.8;" xml:space="preserve">
<style type="text/css">
	.st0{fill:#AC1B25;}
	.st1{fill:url(#SVGID_1_);}
	.st2{fill:url(#SVGID_2_);}
	.st3{fill:url(#SVGID_3_);}
	.st4{fill:url(#SVGID_4_);}
	.st5{fill:url(#SVGID_5_);}
	.st6{fill:url(#SVGID_6_);}
	.st7{fill:url(#SVGID_7_);}
	.st8{fill:url(#SVGID_8_);}
	.st9{fill:url(#SVGID_9_);}
	.st10{fill:url(#SVGID_10_);}
	.st11{fill:url(#SVGID_11_);}
	.st12{fill:url(#SVGID_12_);}
	.st13{fill:url(#SVGID_13_);}
	.st14{fill:url(#SVGID_14_);}
	.st15{fill:url(#SVGID_15_);}
</style>
<g>
	<g>
		<path class="st0" d="M9.8,110.5l4.5-10.4h0.1l4.5,10.4h-2.3l-2.9-7.3l1.4-1l-3.4,8.3H9.8z M12.8,106.9h3l0.7,1.7h-4.3L12.8,106.9z
			"/>
		<path class="st0" d="M28.9,110.9l-7.6-6.8l0.6,0.3l0,6.1h-2v-10.4h0.1l7.4,6.8l-0.4-0.2l0-6.2h2L28.9,110.9L28.9,110.9z"/>
		<path class="st0" d="M35.3,100.5h2v10h-2V100.5z"/>
		<path class="st0" d="M48.4,110.9l-7.6-6.8l0.6,0.3l0,6.1h-2v-10.4h0.1l7.4,6.8l-0.4-0.2l0-6.2h2L48.4,110.9L48.4,110.9z"/>
		<path class="st0" d="M59.7,110.9l-7.6-6.8l0.6,0.3l0,6.1h-2v-10.4h0.1l7.4,6.8l-0.4-0.2l0-6.2h2L59.7,110.9L59.7,110.9z"/>
		<path class="st0" d="M61.3,105.5c0-0.7,0.1-1.3,0.4-2c0.3-0.6,0.6-1.2,1.1-1.6c0.5-0.5,1-0.8,1.6-1.1c0.6-0.3,1.3-0.4,2-0.4
			c0.7,0,1.4,0.1,2,0.4c0.6,0.3,1.2,0.6,1.6,1.1c0.5,0.5,0.8,1,1.1,1.6c0.3,0.6,0.4,1.3,0.4,2c0,0.7-0.1,1.4-0.4,2
			c-0.3,0.6-0.6,1.2-1.1,1.6c-0.5,0.5-1,0.8-1.6,1.1c-0.6,0.3-1.3,0.4-2,0.4c-0.7,0-1.4-0.1-2-0.4c-0.6-0.3-1.2-0.6-1.6-1.1
			c-0.5-0.5-0.8-1-1.1-1.6C61.5,106.9,61.3,106.2,61.3,105.5z M63.4,105.5c0,0.4,0.1,0.9,0.2,1.2c0.2,0.4,0.4,0.7,0.7,1
			c0.3,0.3,0.6,0.5,1,0.7c0.4,0.2,0.8,0.2,1.2,0.2c0.4,0,0.8-0.1,1.2-0.2c0.4-0.2,0.7-0.4,1-0.7c0.3-0.3,0.5-0.6,0.6-1
			c0.2-0.4,0.2-0.8,0.2-1.2c0-0.5-0.1-0.9-0.2-1.3c-0.2-0.4-0.4-0.7-0.7-1c-0.3-0.3-0.6-0.5-1-0.7c-0.4-0.2-0.8-0.2-1.2-0.2
			c-0.4,0-0.8,0.1-1.2,0.2c-0.4,0.2-0.7,0.4-1,0.7c-0.3,0.3-0.5,0.6-0.7,1C63.5,104.6,63.4,105.1,63.4,105.5z"/>
		<path class="st0" d="M74,100.5l2.9,7.2l-1.1-0.2l2.6-7h2.3L76.2,111l-4.6-10.4H74z"/>
		<path class="st0" d="M79.7,110.5l4.5-10.4h0.1l4.5,10.4h-2.3l-2.9-7.3l1.4-1l-3.4,8.3H79.7z M82.7,106.9h3l0.7,1.7h-4.3
			L82.7,106.9z"/>
		<path class="st0" d="M88.4,100.5h6.7v1.9h-2.4v8.1h-2v-8.1h-2.3V100.5z"/>
		<path class="st0" d="M96.7,100.5h2v10h-2V100.5z"/>
		<path class="st0" d="M102.4,100.5l2.9,7.2l-1.1-0.2l2.6-7h2.3l-4.6,10.4l-4.6-10.4H102.4z"/>
		<path class="st0" d="M110.5,100.5h6.8v1.9h-4.8v2.1h4.3v1.9h-4.3v2.2h5v1.9h-7V100.5z"/>
		<path class="st0" d="M123.3,100.5h2v8.1h4.7v1.9h-6.7V100.5z"/>
		<path class="st0" d="M131.7,100.5h2v10h-2V100.5z"/>
		<path class="st0" d="M137.4,100.5l2.9,7.2l-1.1-0.2l2.6-7h2.3l-4.6,10.4l-4.6-10.4H137.4z"/>
		<path class="st0" d="M145.5,100.5h2v10h-2V100.5z"/>
		<path class="st0" d="M158.7,110.9l-7.6-6.8l0.6,0.3l0,6.1h-2v-10.4h0.1l7.4,6.8l-0.4-0.2l0-6.2h2L158.7,110.9L158.7,110.9z"/>
		<path class="st0" d="M169,109.5c-0.1,0.1-0.3,0.3-0.6,0.4c-0.3,0.1-0.5,0.3-0.9,0.4c-0.3,0.1-0.7,0.2-1,0.3
			c-0.3,0.1-0.7,0.1-1,0.1c-0.8,0-1.5-0.1-2.2-0.4c-0.7-0.2-1.2-0.6-1.7-1c-0.5-0.4-0.8-0.9-1.1-1.5c-0.2-0.6-0.4-1.2-0.4-1.9
			c0-0.9,0.1-1.7,0.4-2.4c0.3-0.7,0.7-1.2,1.1-1.7c0.5-0.4,1-0.8,1.6-1c0.6-0.2,1.3-0.3,1.9-0.3c0.6,0,1.2,0.1,1.8,0.2
			c0.5,0.1,1,0.3,1.4,0.5L168,103c-0.2-0.1-0.4-0.2-0.7-0.3c-0.3-0.1-0.5-0.2-0.8-0.2c-0.3-0.1-0.5-0.1-0.7-0.1
			c-0.5,0-1,0.1-1.4,0.2c-0.4,0.1-0.8,0.3-1.1,0.6s-0.5,0.6-0.6,1c-0.1,0.4-0.2,0.9-0.2,1.4c0,0.5,0.1,0.9,0.2,1.3
			c0.2,0.4,0.4,0.7,0.7,1c0.3,0.3,0.6,0.5,1,0.6c0.4,0.1,0.8,0.2,1.3,0.2c0.3,0,0.5,0,0.8-0.1c0.2,0,0.4-0.1,0.6-0.2v-1.2h-1.7v-1.9
			h3.7V109.5z"/>
		<path class="st0" d="M182.5,109.7c-0.1,0.1-0.3,0.2-0.6,0.4c-0.3,0.2-0.7,0.3-1.1,0.4c-0.4,0.1-0.9,0.2-1.4,0.2
			c-0.8,0-1.5-0.2-2.1-0.4c-0.6-0.3-1.1-0.6-1.6-1.1c-0.4-0.5-0.8-1-1-1.6c-0.2-0.6-0.3-1.2-0.3-1.9c0-0.8,0.1-1.5,0.3-2.1
			c0.2-0.6,0.6-1.2,1-1.6c0.4-0.5,0.9-0.8,1.5-1.1c0.6-0.3,1.3-0.4,2-0.4c0.7,0,1.3,0.1,1.8,0.3c0.5,0.2,0.9,0.4,1.3,0.6l-0.8,1.9
			c-0.2-0.2-0.5-0.4-0.9-0.5c-0.4-0.2-0.8-0.3-1.3-0.3c-0.4,0-0.7,0.1-1.1,0.2c-0.3,0.2-0.7,0.4-0.9,0.7c-0.3,0.3-0.5,0.6-0.6,1
			c-0.2,0.4-0.2,0.8-0.2,1.3c0,0.5,0.1,0.9,0.2,1.3c0.1,0.4,0.3,0.7,0.6,1c0.3,0.3,0.6,0.5,0.9,0.7c0.4,0.2,0.8,0.2,1.2,0.2
			c0.5,0,1-0.1,1.4-0.3c0.4-0.2,0.7-0.4,0.9-0.5L182.5,109.7z"/>
		<path class="st0" d="M183.5,105.5c0-0.7,0.1-1.3,0.4-2c0.3-0.6,0.6-1.2,1.1-1.6c0.5-0.5,1-0.8,1.6-1.1c0.6-0.3,1.3-0.4,2-0.4
			c0.7,0,1.4,0.1,2,0.4c0.6,0.3,1.2,0.6,1.6,1.1c0.5,0.5,0.8,1,1.1,1.6c0.3,0.6,0.4,1.3,0.4,2c0,0.7-0.1,1.4-0.4,2
			c-0.3,0.6-0.6,1.2-1.1,1.6c-0.5,0.5-1,0.8-1.6,1.1c-0.6,0.3-1.3,0.4-2,0.4c-0.7,0-1.4-0.1-2-0.4c-0.6-0.3-1.2-0.6-1.6-1.1
			c-0.5-0.5-0.8-1-1.1-1.6C183.7,106.9,183.5,106.2,183.5,105.5z M185.6,105.5c0,0.4,0.1,0.9,0.2,1.2c0.2,0.4,0.4,0.7,0.7,1
			c0.3,0.3,0.6,0.5,1,0.7c0.4,0.2,0.8,0.2,1.2,0.2c0.4,0,0.8-0.1,1.2-0.2c0.4-0.2,0.7-0.4,1-0.7c0.3-0.3,0.5-0.6,0.6-1
			c0.2-0.4,0.2-0.8,0.2-1.2c0-0.5-0.1-0.9-0.2-1.3c-0.2-0.4-0.4-0.7-0.7-1c-0.3-0.3-0.6-0.5-1-0.7c-0.4-0.2-0.8-0.2-1.2-0.2
			c-0.4,0-0.8,0.1-1.2,0.2c-0.4,0.2-0.7,0.4-1,0.7c-0.3,0.3-0.5,0.6-0.7,1C185.6,104.6,185.6,105.1,185.6,105.5z"/>
		<path class="st0" d="M195.4,110.5v-10.4h0l5.5,7.9l-0.8-0.2l5.5-7.7h0v10.4h-2v-6l0.1,1l-3.4,4.8h0l-3.5-4.8l0.3-0.9v5.9H195.4z"
			/>
		<path class="st0" d="M207.9,110.5v-10.4h0l5.5,7.9l-0.8-0.2l5.5-7.7h0v10.4h-2v-6l0.1,1l-3.4,4.8h0l-3.5-4.8l0.3-0.9v5.9H207.9z"
			/>
		<path class="st0" d="M222.2,106.8c0,0.3,0.1,0.6,0.3,0.9c0.2,0.3,0.4,0.5,0.8,0.7c0.3,0.2,0.7,0.3,1,0.3c0.4,0,0.8-0.1,1.1-0.3
			c0.3-0.2,0.6-0.4,0.8-0.7c0.2-0.3,0.3-0.6,0.3-0.9v-6.3h1.9v6.3c0,0.7-0.2,1.4-0.5,1.9c-0.4,0.6-0.9,1-1.5,1.3
			c-0.6,0.3-1.3,0.5-2,0.5c-0.7,0-1.4-0.2-2-0.5c-0.6-0.3-1.1-0.8-1.5-1.3c-0.4-0.6-0.5-1.2-0.5-1.9v-6.3h2V106.8z"/>
		<path class="st0" d="M239.3,110.9l-7.6-6.8l0.6,0.3l0,6.1h-2v-10.4h0.1l7.4,6.8l-0.4-0.2l0-6.2h2L239.3,110.9L239.3,110.9z"/>
		<path class="st0" d="M241.5,100.5h2v10h-2V100.5z"/>
		<path class="st0" d="M245.1,100.5h6.7v1.9h-2.4v8.1h-2v-8.1h-2.3V100.5z"/>
		<path class="st0" d="M256,107.4l-3.7-6.9h2.4l2.6,5.2l-0.6,0l2.5-5.2h2.4l-3.7,6.9v3.1h-2V107.4z"/>
		<path class="st0" d="M265.8,110.5l4.5-10.4h0.1l4.5,10.4h-2.3l-2.9-7.3l1.4-1l-3.4,8.3H265.8z M268.8,106.9h3l0.7,1.7h-4.3
			L268.8,106.9z"/>
		<path class="st0" d="M274.5,100.5h6.7v1.9h-2.4v8.1h-2v-8.1h-2.3V100.5z"/>
		<path class="st0" d="M289.9,100.5c0.6,0,1.2,0.1,1.7,0.2c0.5,0.2,0.9,0.4,1.2,0.7c0.3,0.3,0.6,0.6,0.8,1.1
			c0.2,0.4,0.3,0.9,0.3,1.4c0,0.4-0.1,0.8-0.2,1.2c-0.1,0.4-0.3,0.8-0.6,1.1c-0.3,0.3-0.6,0.6-1.1,0.8c-0.5,0.2-1,0.3-1.7,0.3h-1.4
			v3.2h-2v-10H289.9z M290.2,105.4c0.3,0,0.5,0,0.7-0.1c0.2-0.1,0.4-0.2,0.5-0.4c0.1-0.2,0.2-0.3,0.2-0.5c0-0.2,0.1-0.3,0.1-0.5
			c0-0.1,0-0.2,0-0.4c0-0.2-0.1-0.3-0.2-0.5c-0.1-0.2-0.3-0.3-0.5-0.4c-0.2-0.1-0.5-0.2-0.8-0.2h-1.4v3H290.2z M292.1,106.6l2.5,3.9
			h-2.3l-2.5-3.8L292.1,106.6z"/>
		<path class="st0" d="M294.9,100.5h6.7v1.9h-2.4v8.1h-2v-8.1h-2.3V100.5z"/>
		<path class="st0" d="M306.3,100.5c0.8,0,1.5,0.1,2.1,0.4c0.6,0.3,1,0.7,1.3,1.2c0.3,0.5,0.4,1.1,0.4,1.8c0,0.4-0.1,0.8-0.2,1.2
			c-0.1,0.4-0.3,0.8-0.6,1.1c-0.3,0.3-0.6,0.6-1.1,0.8c-0.4,0.2-1,0.3-1.6,0.3h-1.4v3.2h-2v-10H306.3z M306.6,105.4
			c0.3,0,0.5-0.1,0.7-0.2c0.2-0.1,0.4-0.2,0.5-0.4c0.1-0.2,0.2-0.3,0.2-0.5c0-0.2,0.1-0.3,0.1-0.4c0-0.1,0-0.2,0-0.4
			c0-0.2-0.1-0.3-0.2-0.5c-0.1-0.2-0.3-0.3-0.5-0.4c-0.2-0.1-0.5-0.2-0.8-0.2h-1.4v3H306.6z"/>
	</g>
	<g>
		<g>
			<g>
				<path class="st0" d="M40.7,31.7c0,16.1,0,32.2,0,48.3c0,4.3,6.4,4.3,6.4,0c0-16.1,0-32.2,0-48.3C47.1,27.4,40.7,27.3,40.7,31.7
					L40.7,31.7z"/>
				<linearGradient id="SVGID_1_" gradientUnits="userSpaceOnUse" x1="43.7457" y1="55.7637" x2="90.6387" y2="55.7637">
					<stop  offset="0" style="stop-color:#AC1B25"/>
					<stop  offset="5.033118e-02" style="stop-color:#BA2529"/>
					<stop  offset="0.1577" style="stop-color:#D0362E"/>
					<stop  offset="0.2914" style="stop-color:#E14433"/>
					<stop  offset="0.4791" style="stop-color:#EB4C35"/>
					<stop  offset="1" style="stop-color:#EE4E36"/>
				</linearGradient>
				<path class="st1" d="M93.2,80c0-8.4,0.4-17,0-25.4c-0.9-17.6-17.9-30.4-34.1-25c-9,3-15.7,10.8-17.8,20.4
					c-0.9,4.2,5.3,6,6.2,1.8C49.6,42.2,57.4,35,66.9,35c8.7,0,16.6,6.3,19.1,15c1.3,4.9,0.8,10.4,0.8,15.3c0,4.9,0,9.7,0,14.6
					C86.8,84.3,93.2,84.3,93.2,80L93.2,80z"/>
			</g>
			<g>
				<linearGradient id="SVGID_2_" gradientUnits="userSpaceOnUse" x1="111.2456" y1="42.8378" x2="133.376" y2="42.8378">
					<stop  offset="0" style="stop-color:#AC1B25"/>
					<stop  offset="0.1969" style="stop-color:#B22027"/>
					<stop  offset="0.417" style="stop-color:#C32C2B"/>
					<stop  offset="0.6476" style="stop-color:#E24533"/>
					<stop  offset="0.7135" style="stop-color:#EE4E36"/>
				</linearGradient>
				<path class="st2" d="M130.8,48.1c0.3,0.1,0.6,0.2,0.9,0.3c0.5-0.2,1.1-0.3,1.6-0.4c-0.5-0.5-1-1-1.5-1.5
					c-1.3-1.3-2.7-2.5-4.2-3.5c-2.5-1.8-5.2-3.4-8-4.6c-0.8-0.3-1.5-0.6-2.3-0.9c-0.4-0.2-0.9,0-1.2,0.3c-1.9,2-3.5,4.3-4.7,6.8
					c0,0.1-0.1,0.2-0.1,0.3c-0.4,0.9,0.3,1.9,1.2,1.7c0,0,0,0,0,0c1.8-0.2,3.7-0.4,5.5-0.4c1.3,0,2.6,0.1,3.9,0.2
					c1.8,0.2,3.7,0.5,5.5,0.9C128.6,47.4,129.7,47.7,130.8,48.1z"/>
				<linearGradient id="SVGID_3_" gradientUnits="userSpaceOnUse" x1="108.7029" y1="53.3818" x2="129.7758" y2="53.3818">
					<stop  offset="0" style="stop-color:#AC1B25"/>
					<stop  offset="0.1969" style="stop-color:#B22027"/>
					<stop  offset="0.417" style="stop-color:#C32C2B"/>
					<stop  offset="0.6476" style="stop-color:#E24533"/>
					<stop  offset="0.7135" style="stop-color:#EE4E36"/>
				</linearGradient>
				<path class="st3" d="M128.7,50.3c0.3-0.3,0.7-0.6,1.1-0.9c-0.8-0.2-1.7-0.5-2.6-0.7c-1.8-0.4-3.6-0.7-5.3-0.9
					c-3-0.3-6.1-0.2-9.1,0.2c-0.7,0.1-1.5,0.2-2.2,0.4c-0.4,0.1-0.7,0.4-0.8,0.8c-0.7,2.4-1,4.9-1,7.5c0,0.3,0,0.7,0,1
					c0,0.1,0,0.2,0,0.3c0,0.9,1.1,1.4,1.8,0.8c0,0,0,0,0,0c2.5-2,5.2-3.7,8.1-5.1c1.7-0.8,3.4-1.5,5.2-2.1c1.1-0.4,2.2-0.7,3.3-1
					C127.6,50.5,128.2,50.4,128.7,50.3z"/>
				<linearGradient id="SVGID_4_" gradientUnits="userSpaceOnUse" x1="109.317" y1="61.8356" x2="127.2197" y2="61.8356">
					<stop  offset="0" style="stop-color:#AC1B25"/>
					<stop  offset="0.1969" style="stop-color:#B22027"/>
					<stop  offset="0.417" style="stop-color:#C32C2B"/>
					<stop  offset="0.6476" style="stop-color:#E24533"/>
					<stop  offset="0.7135" style="stop-color:#EE4E36"/>
				</linearGradient>
				<path class="st4" d="M127.2,52.2c-1,0.3-2,0.5-3,0.9c-1.7,0.6-3.4,1.3-5,2c-2.8,1.3-5.4,3-7.8,4.9c-0.6,0.5-1.1,0.9-1.7,1.4
					c-0.3,0.3-0.5,0.8-0.4,1.2c0.6,2.8,1.6,5.4,3,7.9c0,0.1,0.1,0.1,0.1,0.2c0.5,0.9,1.7,0.7,2.1-0.2c0,0,0,0,0,0
					c1.2-3,2.7-5.9,4.6-8.7c1.1-1.6,2.2-3.1,3.5-4.6c0.8-0.9,1.6-1.7,2.4-2.5c0.5-0.5,1.1-1.1,1.7-1.6
					C126.9,52.9,127,52.6,127.2,52.2z"/>
				<linearGradient id="SVGID_5_" gradientUnits="userSpaceOnUse" x1="115.1037" y1="68.2116" x2="126.088" y2="68.2116">
					<stop  offset="0" style="stop-color:#AC1B25"/>
					<stop  offset="0.1969" style="stop-color:#B22027"/>
					<stop  offset="0.417" style="stop-color:#C32C2B"/>
					<stop  offset="0.6476" style="stop-color:#E24533"/>
					<stop  offset="0.7135" style="stop-color:#EE4E36"/>
				</linearGradient>
				<path class="st5" d="M126.1,56.7c0-0.2,0-0.5,0-0.7c0,0,0,0,0,0c-0.8,0.8-1.6,1.6-2.3,2.5c-1.2,1.4-2.4,2.9-3.4,4.4
					c-1.8,2.6-3.2,5.4-4.4,8.3c-0.3,0.7-0.6,1.5-0.8,2.3c-0.2,0.5-0.1,1.1,0.3,1.4c1.8,2,3.8,3.7,6,5.1c0.1,0,0.2,0.1,0.2,0.1
					c1,0.6,2.2-0.3,2.1-1.5c0,0,0,0,0,0c-0.4-3.3-0.5-6.6-0.2-9.9c0.2-1.9,0.5-3.9,0.9-5.8c0.2-1.1,0.5-2.3,0.8-3.4
					c0.2-0.8,0.5-1.6,0.7-2.3c0,0,0-0.1,0-0.1C126.1,57,126.1,56.9,126.1,56.7z"/>
				<linearGradient id="SVGID_6_" gradientUnits="userSpaceOnUse" x1="124.9484" y1="71.9524" x2="136.0893" y2="71.9524">
					<stop  offset="0" style="stop-color:#AC1B25"/>
					<stop  offset="0.1969" style="stop-color:#B22027"/>
					<stop  offset="0.417" style="stop-color:#C32C2B"/>
					<stop  offset="0.6476" style="stop-color:#E24533"/>
					<stop  offset="0.7135" style="stop-color:#EE4E36"/>
				</linearGradient>
				<path class="st6" d="M130.7,72.4c-0.8-1.8-1.5-3.6-2-5.4c-0.3-1.1-0.6-2.3-0.9-3.4c-0.2-0.7-0.3-1.4-0.4-2.1
					c-0.2-0.4-0.5-0.8-0.6-1.3c-0.3,1.1-0.6,2.1-0.8,3.2c-0.4,1.8-0.7,3.7-0.8,5.6c-0.3,3.2-0.2,6.4,0.2,9.5
					c0.1,0.9,0.3,1.9,0.4,2.8c0.1,0.6,0.5,1.1,1.1,1.2c2.3,0.8,4.7,1.2,7.2,1.2c0.2,0,0.3,0,0.5,0c0,0,0,0,0,0c1.3,0,2-1.6,1.2-2.7
					c0-0.1-0.1-0.1-0.1-0.2C133.7,78.3,132.1,75.4,130.7,72.4z"/>
				<linearGradient id="SVGID_7_" gradientUnits="userSpaceOnUse" x1="129.4054" y1="73.3932" x2="148.136" y2="73.3932">
					<stop  offset="0" style="stop-color:#AC1B25"/>
					<stop  offset="0.1969" style="stop-color:#B22027"/>
					<stop  offset="0.417" style="stop-color:#C32C2B"/>
					<stop  offset="0.6476" style="stop-color:#E24533"/>
					<stop  offset="0.7135" style="stop-color:#EE4E36"/>
				</linearGradient>
				<path class="st7" d="M146.9,76.6c-2.9-1.3-5.7-2.9-8.3-4.8c-1.5-1.1-3-2.3-4.4-3.7c-0.8-0.8-1.6-1.6-2.4-2.5
					c-0.3-0.3-0.5-0.6-0.7-0.8c-0.6-0.3-1.2-0.6-1.7-1c0.2,0.9,0.5,1.8,0.7,2.7c0.5,1.8,1.2,3.6,2,5.3c1.3,2.9,2.9,5.7,4.7,8.2
					c0.6,0.8,1.2,1.6,1.9,2.4c0.5,0.6,1.3,0.8,2,0.6c2.1-0.5,4.2-1.4,6.1-2.5c0.1-0.1,0.2-0.1,0.4-0.2
					C148.6,79.4,148.4,77.2,146.9,76.6C146.9,76.6,146.9,76.6,146.9,76.6z"/>
				<linearGradient id="SVGID_8_" gradientUnits="userSpaceOnUse" x1="133.8328" y1="70.8992" x2="157.1055" y2="70.8992">
					<stop  offset="0" style="stop-color:#AC1B25"/>
					<stop  offset="0.1969" style="stop-color:#B22027"/>
					<stop  offset="0.417" style="stop-color:#C32C2B"/>
					<stop  offset="0.6476" style="stop-color:#E24533"/>
					<stop  offset="0.7135" style="stop-color:#EE4E36"/>
				</linearGradient>
				<path class="st8" d="M154.6,67c-3.1,0.4-6.3,0.5-9.4,0.2c-1.8-0.2-3.7-0.5-5.5-0.9c-1.1-0.2-2.2-0.5-3.3-0.9c0,0,0,0,0,0
					c-0.6,0.1-1.2,0.2-1.8,0.2c-0.2,0-0.5,0-0.7,0c0.5,0.5,0.9,1,1.4,1.4c1.3,1.3,2.7,2.5,4.2,3.5c2.5,1.8,5.2,3.4,8,4.6
					c1,0.4,2.1,0.9,3.1,1.2c0.8,0.3,1.7,0.1,2.2-0.6c1.4-1.5,2.7-3.2,3.7-4.9c0.1-0.2,0.2-0.3,0.3-0.5
					C157.7,68.7,156.4,66.7,154.6,67C154.6,67,154.6,67,154.6,67z"/>
				<linearGradient id="SVGID_9_" gradientUnits="userSpaceOnUse" x1="138.6922" y1="59.9096" x2="160.3248" y2="59.9096">
					<stop  offset="0" style="stop-color:#AC1B25"/>
					<stop  offset="0.1969" style="stop-color:#B22027"/>
					<stop  offset="0.417" style="stop-color:#C32C2B"/>
					<stop  offset="0.6476" style="stop-color:#E24533"/>
					<stop  offset="0.7135" style="stop-color:#EE4E36"/>
				</linearGradient>
				<path class="st9" d="M160.3,56.4c0-1.9-2.2-3-3.6-1.8c0,0,0,0,0,0c-2.5,2-5.2,3.7-8.1,5.1c-1.7,0.8-3.4,1.5-5.2,2.1
					c-0.8,0.3-1.7,0.5-2.5,0.8c-0.6,0.7-1.3,1.3-2.2,1.8c0.4,0.1,0.8,0.2,1.2,0.3c1.8,0.4,3.6,0.7,5.3,0.9c3,0.3,6.1,0.2,9.1-0.2
					c1.2-0.2,2.4-0.4,3.5-0.6c0.9-0.2,1.5-0.9,1.7-1.8c0.4-1.9,0.7-3.9,0.7-6c0-0.1,0-0.2,0-0.3C160.3,56.6,160.3,56.5,160.3,56.4z"
					/>
				<g>
					<linearGradient id="SVGID_10_" gradientUnits="userSpaceOnUse" x1="142.126" y1="50.9502" x2="159.2182" y2="50.9502">
						<stop  offset="0" style="stop-color:#AC1B25"/>
						<stop  offset="0.1969" style="stop-color:#B22027"/>
						<stop  offset="0.417" style="stop-color:#C32C2B"/>
						<stop  offset="0.6476" style="stop-color:#E24533"/>
						<stop  offset="0.7135" style="stop-color:#EE4E36"/>
					</linearGradient>
					<path class="st10" d="M156.7,43c-0.1-0.2-0.2-0.4-0.3-0.6c-0.9-1.6-3.2-1.4-3.9,0.4c0,0,0,0,0,0c-1.2,3-2.7,5.9-4.6,8.7
						c-1.1,1.6-2.2,3.1-3.5,4.6c-0.5,0.6-1,1.2-1.6,1.7c-0.1,1-0.4,2-0.8,2.8c0.3-0.1,0.5-0.2,0.8-0.3c1.7-0.6,3.4-1.3,5-2
						c2.8-1.3,5.4-3,7.8-4.9c1-0.8,1.9-1.6,2.8-2.4c0.6-0.6,0.9-1.5,0.6-2.4C158.5,46.6,157.7,44.7,156.7,43z"/>
				</g>
				<g>
					<linearGradient id="SVGID_11_" gradientUnits="userSpaceOnUse" x1="142.1134" y1="43.7181" x2="152.4348" y2="43.7181">
						<stop  offset="0" style="stop-color:#AC1B25"/>
						<stop  offset="0.1969" style="stop-color:#B22027"/>
						<stop  offset="0.417" style="stop-color:#C32C2B"/>
						<stop  offset="0.6476" style="stop-color:#E24533"/>
						<stop  offset="0.7135" style="stop-color:#EE4E36"/>
					</linearGradient>
					<path class="st11" d="M146.7,32.9c-0.2-0.1-0.3-0.2-0.5-0.3c-1.4-0.7-3,0.5-2.8,2.1c0,0,0,0,0,0c0.4,3.2,0.5,6.6,0.2,9.9
						c-0.2,1.9-0.5,3.9-0.9,5.8c-0.2,0.8-0.4,1.6-0.6,2.4c0.3,0.7,0.5,1.4,0.7,2.1c0.2,0.1,0.3,0.1,0.5,0.1c1.3-1.4,2.4-3,3.5-4.5
						c1.8-2.6,3.2-5.4,4.4-8.3c0.4-1.1,0.8-2.2,1.2-3.4c0.2-0.8,0-1.6-0.6-2.2C150.2,35.2,148.5,33.9,146.7,32.9z"/>
				</g>
				<g>
					<linearGradient id="SVGID_12_" gradientUnits="userSpaceOnUse" x1="131.1905" y1="40.1326" x2="142.2109" y2="40.1326">
						<stop  offset="0" style="stop-color:#AC1B25"/>
						<stop  offset="0.1969" style="stop-color:#B22027"/>
						<stop  offset="0.417" style="stop-color:#C32C2B"/>
						<stop  offset="0.6476" style="stop-color:#E24533"/>
						<stop  offset="0.7135" style="stop-color:#EE4E36"/>
					</linearGradient>
					<path class="st12" d="M136.4,41c0.8,1.8,1.5,3.6,2,5.4c0.3,1,0.6,1.9,0.8,2.9c0.5,0.4,1,0.8,1.4,1.2c0.3-0.1,0.2-0.1,0.5-0.2
						c0.4-2,0.7-4,0.9-5.9c0.3-3.2,0.2-6.4-0.2-9.5c-0.1-1.1-0.3-2.2-0.5-3.3c-0.1-0.6-0.6-1.2-1.2-1.3c-1.8-0.4-3.7-0.6-5.6-0.6
						c-0.4,0-0.9,0-1.3,0c-0.2,0-0.3,0-0.5,0c-1.3,0.1-2,1.7-1.2,2.8c0,0,0,0,0,0C133.5,35.2,135.1,38,136.4,41z"/>
				</g>
				<g>
					<linearGradient id="SVGID_13_" gradientUnits="userSpaceOnUse" x1="119.4191" y1="39.5726" x2="137.4322" y2="39.5726">
						<stop  offset="0" style="stop-color:#AC1B25"/>
						<stop  offset="0.1969" style="stop-color:#B22027"/>
						<stop  offset="0.417" style="stop-color:#C32C2B"/>
						<stop  offset="0.6476" style="stop-color:#E24533"/>
						<stop  offset="0.7135" style="stop-color:#EE4E36"/>
					</linearGradient>
					<path class="st13" d="M132.9,45.3c0.8,0.8,1.6,1.6,2.4,2.5c0,0,0.1,0.1,0.1,0.1c0.7,0.1,1.4,0.2,2,0.5c-0.1-0.5-0.3-1-0.4-1.5
						c-0.5-1.8-1.2-3.6-2-5.3c-1.3-2.9-2.9-5.7-4.7-8.2c-0.6-0.8-1.2-1.6-1.8-2.3c-0.3-0.4-0.9-0.6-1.4-0.4
						c-2.4,0.7-4.7,1.9-6.8,3.3c-0.1,0.1-0.2,0.2-0.3,0.2c-0.9,0.6-0.7,2.1,0.3,2.5c0,0,0,0,0,0c2.9,1.3,5.7,2.9,8.3,4.8
						C130.1,42.7,131.5,44,132.9,45.3z"/>
				</g>
			</g>
			<path class="st0" d="M215.3,30c-7.7,16.1-15.4,32.2-23.1,48.3c1.8,0,3.7,0,5.5,0c-7.7-16.1-15.4-32.2-23.1-48.3
				c-1.8-3.9-7.4-0.5-5.5,3.4c7.7,16.1,15.4,32.2,23.1,48.3c1,2.2,4.5,2.2,5.5,0c7.7-16.1,15.4-32.2,23.1-48.3
				C222.7,29.5,217.2,26.1,215.3,30L215.3,30z"/>
			<path class="st0" d="M273.9,59.9c-2.8,12.1-14.9,19.4-26.3,15.5c-10.9-3.7-15.3-16.9-11.5-27.6c3.7-10.7,15.3-15.7,25.3-11.4
				c8.7,3.7,12.5,12.4,12.4,21.8c-0.1,7.3-0.1,14.6-0.2,21.9c0,4.3,6.4,4.3,6.4,0c0.1-7.8,0.2-15.6,0.2-23.4
				c0-12.8-7.8-24.7-20-27.7c-13-3.3-25.9,4-30.4,17.1c-4.6,13.4,0.9,29.2,13.7,35c15,6.7,32.7-2.7,36.5-19.3
				C281,57.4,274.8,55.6,273.9,59.9L273.9,59.9z"/>
			<linearGradient id="SVGID_14_" gradientUnits="userSpaceOnUse" x1="194.4665" y1="55.8143" x2="218.6695" y2="55.8143">
				<stop  offset="0" style="stop-color:#AC1B25"/>
				<stop  offset="7.121968e-02" style="stop-color:#B32127"/>
				<stop  offset="0.4099" style="stop-color:#D2382F"/>
				<stop  offset="0.7273" style="stop-color:#E74834"/>
				<stop  offset="1" style="stop-color:#EE4E36"/>
			</linearGradient>
			<path class="st14" d="M197.8,81.7c7.7-16.1,15.4-32.2,23.1-48.3c1.8-3.8-3.7-7.3-5.5-3.4c-7.7,16.1-15.4,32.2-23.1,48.3
				C190.4,82.1,196,85.5,197.8,81.7L197.8,81.7z"/>
			<linearGradient id="SVGID_15_" gradientUnits="userSpaceOnUse" x1="231.0305" y1="69.689" x2="277.5321" y2="69.689">
				<stop  offset="0" style="stop-color:#AC1B25"/>
				<stop  offset="0.3432" style="stop-color:#C9312D"/>
				<stop  offset="0.7297" style="stop-color:#E44633"/>
				<stop  offset="1" style="stop-color:#EE4E36"/>
			</linearGradient>
			<path class="st15" d="M273.8,59.9c-2.1,9.8-10.2,16.9-20,16.7c-9.1-0.2-17.9-7.6-19-17.4c-0.5-4.2-6.9-4.3-6.4,0
				c1.4,13.1,11.9,23.2,24.4,24c12.8,0.8,24.3-8.7,27.1-21.6C280.9,57.5,274.7,55.7,273.8,59.9L273.8,59.9z"/>
		</g>
	</g>
</g>
</svg>
