<?xml version="1.0" encoding="utf-8"?>
<!-- Generator: Adobe Illustrator 25.2.1, SVG Export Plug-In . SVG Version: 6.00 Build 0)  -->
<svg version="1.1" id="Layer_1" xmlns="http://www.w3.org/2000/svg" xmlns:xlink="http://www.w3.org/1999/xlink" x="0px" y="0px"
	 viewBox="0 0 1027 417" style="enable-background:new 0 0 1027 417;" xml:space="preserve">
<style type="text/css">
	.st0{fill:#FFFFFF;}
</style>
<g>
	<g>
		<path class="st0" d="M28.1,330.1l14.2-32.7h0.3l14.2,32.7h-7.2l-9.1-23l4.5-3.1l-10.9,26.1H28.1z M37.8,318.8h9.4l2.2,5.2H35.9
			L37.8,318.8z"/>
		<path class="st0" d="M88.5,331.4l-23.8-21.5l1.8,1l0.1,19.2h-6.3v-32.7h0.3l23.3,21.5l-1.4-0.6l-0.1-19.6h6.2v32.7H88.5z"/>
		<path class="st0" d="M108.5,298.7h6.2v31.5h-6.2V298.7z"/>
		<path class="st0" d="M149.9,331.4l-23.8-21.5l1.8,1l0.1,19.2h-6.3v-32.7h0.3l23.3,21.5l-1.4-0.6l-0.1-19.6h6.2v32.7H149.9z"/>
		<path class="st0" d="M185.3,331.4l-23.8-21.5l1.8,1l0.1,19.2h-6.3v-32.7h0.3l23.3,21.5l-1.4-0.6l-0.1-19.6h6.2v32.7H185.3z"/>
		<path class="st0" d="M190.6,314.4c0-2.2,0.4-4.2,1.2-6.2c0.8-1.9,2-3.7,3.4-5.1c1.5-1.5,3.2-2.7,5.1-3.5c1.9-0.9,4-1.3,6.2-1.3
			c2.2,0,4.3,0.4,6.2,1.3c1.9,0.9,3.7,2,5.1,3.5c1.5,1.5,2.7,3.2,3.5,5.1c0.8,1.9,1.3,4,1.3,6.2c0,2.2-0.4,4.3-1.3,6.2
			c-0.8,1.9-2,3.6-3.5,5.1c-1.5,1.5-3.2,2.6-5.1,3.4c-1.9,0.8-4,1.2-6.2,1.2c-2.2,0-4.3-0.4-6.2-1.2c-1.9-0.8-3.6-2-5.1-3.4
			c-1.5-1.5-2.6-3.2-3.4-5.1C191,318.7,190.6,316.7,190.6,314.4z M197,314.4c0,1.4,0.2,2.7,0.7,3.9c0.5,1.2,1.2,2.3,2.1,3.2
			c0.9,0.9,1.9,1.6,3.1,2.2c1.2,0.5,2.5,0.8,3.9,0.8c1.3,0,2.6-0.3,3.7-0.8c1.2-0.5,2.2-1.2,3-2.2c0.9-0.9,1.5-2,2-3.2
			c0.5-1.2,0.7-2.5,0.7-3.9c0-1.4-0.2-2.7-0.7-4c-0.5-1.2-1.2-2.3-2.1-3.2c-0.9-0.9-1.9-1.6-3.1-2.2c-1.2-0.5-2.4-0.8-3.8-0.8
			c-1.4,0-2.6,0.3-3.8,0.8c-1.2,0.5-2.2,1.2-3.1,2.2c-0.9,0.9-1.6,2-2.1,3.2C197.3,311.7,197,313,197,314.4z"/>
		<path class="st0" d="M230.5,298.7l9.2,22.6l-3.6-0.7l8.3-21.9h7.3l-14.4,32.9l-14.4-32.9H230.5z"/>
		<path class="st0" d="M248.3,330.1l14.2-32.7h0.3l14.2,32.7h-7.2l-9.1-23l4.5-3.1l-10.9,26.1H248.3z M258,318.8h9.4l2.2,5.2h-13.5
			L258,318.8z"/>
		<path class="st0" d="M275.8,298.7H297v6h-7.6v25.5h-6.2v-25.5h-7.3V298.7z"/>
		<path class="st0" d="M301.9,298.7h6.2v31.5h-6.2V298.7z"/>
		<path class="st0" d="M319.9,298.7l9.2,22.6l-3.6-0.7l8.3-21.9h7.3l-14.4,32.9l-14.4-32.9H319.9z"/>
		<path class="st0" d="M345.6,298.7H367v6h-15.3v6.7h13.5v6h-13.5v6.8h15.9v6h-22V298.7z"/>
		<path class="st0" d="M385.8,298.7h6.2v25.5h14.8v6h-21V298.7z"/>
		<path class="st0" d="M412.1,298.7h6.2v31.5h-6.2V298.7z"/>
		<path class="st0" d="M430.1,298.7l9.2,22.6l-3.6-0.7l8.3-21.9h7.3L437,331.6l-14.4-32.9H430.1z"/>
		<path class="st0" d="M455.7,298.7h6.2v31.5h-6.2V298.7z"/>
		<path class="st0" d="M497.1,331.4l-23.8-21.5l1.8,1l0.1,19.2H469v-32.7h0.3l23.3,21.5l-1.4-0.6l-0.1-19.6h6.2v32.7H497.1z"/>
		<path class="st0" d="M529.9,327c-0.4,0.4-1,0.8-1.8,1.2c-0.8,0.4-1.7,0.8-2.8,1.1c-1,0.3-2.1,0.6-3.2,0.8
			c-1.1,0.2-2.1,0.3-3.1,0.3c-2.6,0-4.9-0.4-6.9-1.1c-2.1-0.8-3.8-1.8-5.3-3.2c-1.5-1.4-2.6-3-3.3-4.8c-0.8-1.9-1.2-3.9-1.2-6.1
			c0-2.9,0.4-5.4,1.3-7.5c0.9-2.1,2.1-3.9,3.5-5.3c1.5-1.4,3.2-2.5,5.2-3.1c2-0.7,4-1,6.1-1c2,0,3.9,0.2,5.6,0.7
			c1.7,0.4,3.1,1,4.3,1.6l-2,5.8c-0.5-0.3-1.2-0.6-2.1-0.9c-0.9-0.3-1.7-0.5-2.6-0.7c-0.9-0.2-1.7-0.3-2.4-0.3
			c-1.7,0-3.2,0.2-4.5,0.6c-1.3,0.4-2.4,1.1-3.3,1.9s-1.6,1.9-2,3.2c-0.5,1.3-0.7,2.7-0.7,4.4c0,1.5,0.3,2.8,0.8,4
			c0.5,1.2,1.2,2.2,2.2,3c0.9,0.8,2,1.5,3.3,1.9c1.3,0.4,2.7,0.6,4.2,0.6c0.9,0,1.7-0.1,2.4-0.2c0.7-0.1,1.4-0.3,1.9-0.6v-3.8h-5.4
			v-6h11.7V327z"/>
		<path class="st0" d="M572.3,327.5c-0.3,0.3-1,0.7-1.9,1.2c-0.9,0.5-2.1,0.9-3.4,1.3c-1.3,0.4-2.8,0.5-4.4,0.5
			c-2.5-0.1-4.7-0.5-6.6-1.3c-2-0.8-3.6-2-5-3.4c-1.4-1.5-2.4-3.1-3.1-5c-0.7-1.9-1.1-3.9-1.1-6c0-2.4,0.4-4.6,1.1-6.6
			c0.7-2,1.8-3.7,3.1-5.2c1.4-1.5,3-2.6,4.9-3.4c1.9-0.8,4-1.2,6.2-1.2c2.1,0,4,0.3,5.6,0.9c1.6,0.6,2.9,1.2,4,1.8l-2.4,5.9
			c-0.7-0.5-1.7-1.1-2.8-1.7c-1.2-0.6-2.5-0.9-4.1-0.9c-1.2,0-2.3,0.2-3.4,0.7c-1.1,0.5-2.1,1.2-2.9,2.1c-0.8,0.9-1.5,2-2,3.2
			c-0.5,1.2-0.7,2.5-0.7,4c0,1.5,0.2,2.9,0.7,4.1c0.4,1.3,1.1,2.3,1.9,3.2c0.8,0.9,1.8,1.6,3,2.1c1.2,0.5,2.5,0.7,3.9,0.7
			c1.7,0,3.1-0.3,4.3-0.8c1.2-0.5,2.1-1.1,2.7-1.7L572.3,327.5z"/>
		<path class="st0" d="M575.5,314.4c0-2.2,0.4-4.2,1.2-6.2c0.8-1.9,2-3.7,3.4-5.1c1.5-1.5,3.2-2.7,5.1-3.5c1.9-0.9,4-1.3,6.2-1.3
			c2.2,0,4.3,0.4,6.2,1.3c1.9,0.9,3.7,2,5.1,3.5c1.5,1.5,2.7,3.2,3.5,5.1c0.8,1.9,1.3,4,1.3,6.2c0,2.2-0.4,4.3-1.3,6.2
			c-0.8,1.9-2,3.6-3.5,5.1c-1.5,1.5-3.2,2.6-5.1,3.4c-1.9,0.8-4,1.2-6.2,1.2c-2.2,0-4.3-0.4-6.2-1.2c-1.9-0.8-3.6-2-5.1-3.4
			c-1.5-1.5-2.6-3.2-3.4-5.1C575.9,318.7,575.5,316.7,575.5,314.4z M581.9,314.4c0,1.4,0.2,2.7,0.7,3.9c0.5,1.2,1.2,2.3,2.1,3.2
			c0.9,0.9,1.9,1.6,3.1,2.2c1.2,0.5,2.5,0.8,3.9,0.8c1.3,0,2.6-0.3,3.7-0.8s2.2-1.2,3-2.2c0.9-0.9,1.5-2,2-3.2
			c0.5-1.2,0.7-2.5,0.7-3.9c0-1.4-0.2-2.7-0.7-4c-0.5-1.2-1.2-2.3-2.1-3.2c-0.9-0.9-1.9-1.6-3.1-2.2c-1.2-0.5-2.4-0.8-3.8-0.8
			c-1.4,0-2.6,0.3-3.8,0.8c-1.2,0.5-2.2,1.2-3.1,2.2c-0.9,0.9-1.6,2-2.1,3.2C582.1,311.7,581.9,313,581.9,314.4z"/>
		<path class="st0" d="M612.7,330.1v-32.7h0l17.5,24.8l-2.6-0.6l17.4-24.2h0.1v32.7h-6.2v-18.8l0.4,3.2l-10.6,15.1h-0.1l-10.9-15.1
			l1.1-2.9v18.5H612.7z"/>
		<path class="st0" d="M652.2,330.1v-32.7h0l17.5,24.8l-2.6-0.6l17.4-24.2h0.1v32.7h-6.2v-18.8l0.4,3.2l-10.6,15.1H668l-10.9-15.1
			l1.1-2.9v18.5H652.2z"/>
		<path class="st0" d="M697.2,318.5c0,1,0.3,2,0.9,2.9c0.6,0.9,1.4,1.7,2.4,2.2c1,0.6,2.1,0.9,3.2,0.9c1.3,0,2.4-0.3,3.4-0.9
			c1-0.6,1.8-1.3,2.4-2.2c0.6-0.9,0.9-1.9,0.9-2.9v-19.8h6.1v20c0,2.3-0.6,4.4-1.7,6.1c-1.1,1.8-2.7,3.2-4.6,4.2
			c-1.9,1-4.1,1.5-6.5,1.5c-2.3,0-4.5-0.5-6.4-1.5c-1.9-1-3.5-2.4-4.6-4.2c-1.1-1.8-1.7-3.8-1.7-6.1v-20h6.2V318.5z"/>
		<path class="st0" d="M751,331.4l-23.8-21.5l1.8,1l0.1,19.2h-6.3v-32.7h0.3l23.3,21.5l-1.4-0.6l-0.1-19.6h6.2v32.7H751z"/>
		<path class="st0" d="M758.2,298.7h6.2v31.5h-6.2V298.7z"/>
		<path class="st0" d="M769.3,298.7h21.2v6h-7.6v25.5h-6.2v-25.5h-7.4V298.7z"/>
		<path class="st0" d="M803.6,320.3L792,298.7h7.6l8.1,16.3l-1.8,0.1l8-16.5h7.6l-11.8,21.7v9.8h-6.2V320.3z"/>
		<path class="st0" d="M834.5,330.1l14.2-32.7h0.3l14.2,32.7H856l-9.1-23l4.5-3.1l-10.9,26.1H834.5z M844.2,318.8h9.4l2.2,5.2h-13.5
			L844.2,318.8z"/>
		<path class="st0" d="M862,298.7h21.2v6h-7.6v25.5h-6.2v-25.5H862V298.7z"/>
		<path class="st0" d="M910.5,298.7c2,0,3.7,0.2,5.3,0.7c1.5,0.5,2.8,1.2,3.9,2.1c1,0.9,1.8,2,2.4,3.3c0.5,1.3,0.8,2.8,0.8,4.4
			c0,1.3-0.2,2.6-0.6,3.8c-0.4,1.3-1,2.5-1.9,3.5c-0.9,1.1-2,1.9-3.4,2.5c-1.4,0.6-3.2,1-5.3,1h-4.4v10H901v-31.5H910.5z
			 M911.6,314.1c0.9,0,1.7-0.2,2.4-0.5c0.6-0.3,1.1-0.7,1.5-1.2c0.4-0.5,0.6-1,0.8-1.5c0.2-0.5,0.2-1,0.2-1.5c0-0.3-0.1-0.8-0.1-1.3
			c-0.1-0.5-0.3-1.1-0.6-1.6c-0.3-0.5-0.8-1-1.4-1.4c-0.6-0.4-1.5-0.6-2.6-0.6h-4.4v9.5H911.6z M917.4,318l7.8,12.1h-7.2l-7.9-12
			L917.4,318z"/>
		<path class="st0" d="M926.4,298.7h21.2v6H940v25.5h-6.2v-25.5h-7.4V298.7z"/>
		<path class="st0" d="M962.1,298.7c2.6,0,4.8,0.4,6.6,1.3c1.8,0.9,3.2,2.1,4.1,3.7c0.9,1.6,1.4,3.5,1.4,5.6c0,1.3-0.2,2.6-0.6,3.9
			c-0.4,1.3-1,2.5-1.8,3.5c-0.8,1.1-2,1.9-3.4,2.5c-1.4,0.6-3.1,1-5.2,1h-4.4v10h-6.2v-31.5H962.1z M963.1,314.1
			c0.9,0,1.7-0.2,2.4-0.5c0.6-0.3,1.1-0.7,1.5-1.2c0.4-0.5,0.6-1,0.8-1.6c0.2-0.5,0.2-1,0.2-1.4c0-0.3-0.1-0.7-0.1-1.3
			c-0.1-0.5-0.3-1.1-0.6-1.6c-0.3-0.5-0.8-1-1.4-1.4c-0.6-0.4-1.5-0.6-2.6-0.6h-4.4v9.5H963.1z"/>
	</g>
	<g>
		<g>
			<g>
				<path class="st0" d="M125.5,81.8c0,50.7,0,101.4,0,152.1c0,13.6,20.2,13.6,20.2,0c0-50.7,0-101.4,0-152.1
					C145.7,68.2,125.5,68.2,125.5,81.8L125.5,81.8z"/>
				<path class="st0" d="M291,233.9c0-26.6,1.2-53.5-0.1-80c-2.8-55.4-56.3-95.6-107.3-78.7c-28.3,9.4-49.5,34.1-56.2,64.3
					c-2.9,13.2,16.5,18.9,19.5,5.6c6.6-30.2,31.3-52.8,61.4-52.8c27.4,0,52.4,19.8,60.1,47.4c4.2,15.3,2.5,32.6,2.5,48.3
					c0,15.3,0,30.6,0,45.9C270.8,247.5,291,247.5,291,233.9L291,233.9z"/>
			</g>
			<g>
				<path class="st0" d="M409.5,133.4c1,0.3,1.9,0.6,2.9,0.9c1.7-0.6,3.4-1,5.2-1.3c-1.5-1.6-3.1-3.2-4.7-4.7
					c-4.2-4-8.7-7.8-13.2-11.1c-7.9-5.8-16.3-10.7-25.1-14.5c-2.4-1-4.9-2-7.3-2.9c-1.3-0.5-2.8-0.1-3.8,0.9
					c-6,6.3-10.9,13.4-14.8,21.3c-0.2,0.3-0.3,0.6-0.4,0.9c-1.3,2.7,0.9,5.9,3.8,5.5c0,0,0,0,0.1,0c5.7-0.8,11.6-1.2,17.4-1.2
					c4.1,0,8.2,0.2,12.3,0.6c5.8,0.6,11.6,1.5,17.4,2.8C402.6,131.4,406.1,132.4,409.5,133.4z"/>
				<path class="st0" d="M402.8,140.4c1-1,2.2-2,3.3-2.8c-2.7-0.8-5.4-1.5-8.1-2.1c-5.5-1.3-11.2-2.2-16.8-2.7
					c-9.6-0.9-19.2-0.7-28.7,0.6c-2.3,0.3-4.7,0.7-7,1.2c-1.3,0.2-2.3,1.2-2.7,2.5c-2.1,7.6-3.2,15.6-3.2,23.6c0,1.1,0,2.2,0.1,3.2
					c0,0.3,0,0.6,0,0.9c0.1,2.9,3.4,4.4,5.6,2.6c0,0,0,0,0.1,0c7.8-6.3,16.4-11.7,25.5-16.1c5.3-2.6,10.8-4.8,16.4-6.7
					c3.4-1.1,6.8-2.1,10.3-3C399.3,141.2,401.1,140.8,402.8,140.4z"/>
				<path class="st0" d="M398.1,146.6c-3.2,0.8-6.3,1.7-9.3,2.7c-5.4,1.8-10.7,4-15.8,6.4c-8.7,4.2-17,9.5-24.6,15.5
					c-1.8,1.5-3.6,3-5.4,4.5c-1,0.9-1.5,2.4-1.2,3.8c1.9,8.8,5.1,17.1,9.5,24.8c0.1,0.2,0.3,0.5,0.4,0.7c1.6,2.7,5.5,2.3,6.6-0.6
					c0,0,0,0,0-0.1c3.8-9.5,8.6-18.7,14.4-27.2c3.3-5,7-9.8,11-14.3c2.4-2.7,4.9-5.4,7.5-8c1.7-1.7,3.4-3.3,5.2-5
					C397,148.8,397.5,147.7,398.1,146.6z"/>
				<path class="st0" d="M394.5,160.7c0-0.7,0-1.5,0.1-2.2c0,0,0,0,0,0c-2.5,2.5-4.9,5.1-7.2,7.7c-3.8,4.4-7.4,9.1-10.6,13.9
					c-5.5,8.2-10.2,17.1-13.9,26.3c-0.9,2.3-1.8,4.7-2.6,7.1c-0.5,1.6-0.2,3.3,0.9,4.6c5.5,6.4,11.9,11.8,19,16.1
					c0.2,0.2,0.5,0.3,0.7,0.5c3.2,1.9,7-0.9,6.5-4.7c0,0,0-0.1,0-0.1c-1.3-10.2-1.5-20.7-0.6-31.1c0.5-6.1,1.4-12.2,2.7-18.2
					c0.8-3.6,1.7-7.3,2.7-10.8c0.7-2.4,1.5-4.9,2.3-7.4c0-0.1,0.1-0.2,0.1-0.3C394.5,161.6,394.5,161.2,394.5,160.7z"/>
				<path class="st0" d="M409.2,210.1c-2.4-5.5-4.6-11.3-6.4-17.2c-1.1-3.5-2-7.2-2.9-10.8c-0.5-2.2-1-4.4-1.4-6.6
					c-0.8-1.3-1.4-2.6-2-4c-0.9,3.3-1.8,6.7-2.5,10.1c-1.2,5.8-2.1,11.7-2.6,17.6c-0.9,10-0.7,20.1,0.6,30c0.4,2.9,0.8,5.9,1.4,8.8
					c0.3,1.8,1.6,3.3,3.3,3.9c7.3,2.4,14.9,3.7,22.7,3.9c0.5,0,1,0,1.7,0c0,0,0.1,0,0.1,0c4.1,0,6.3-5,3.8-8.4
					c-0.2-0.2-0.3-0.4-0.5-0.6C418.5,228.6,413.4,219.6,409.2,210.1z"/>
				<path class="st0" d="M460,223.2c-9.1-4-17.9-9-26-15c-4.7-3.5-9.4-7.4-13.7-11.5c-2.6-2.5-5.2-5.1-7.6-7.8
					c-0.8-0.9-1.6-1.8-2.4-2.7c-1.9-0.9-3.7-2-5.3-3.3c0.7,2.9,1.5,5.8,2.3,8.6c1.7,5.7,3.8,11.2,6.1,16.6c4,9.2,9,17.8,14.8,25.7
					c1.9,2.6,3.9,5.1,6,7.6c1.6,1.8,4,2.6,6.3,2c6.7-1.7,13.1-4.3,19.2-7.8c0.4-0.2,0.8-0.4,1.1-0.7c4.5-2.7,4-9.6-0.8-11.7
					C460.1,223.3,460,223.3,460,223.2z"/>
				<path class="st0" d="M484.2,193c-9.8,1.3-19.8,1.5-29.7,0.6c-5.8-0.5-11.6-1.5-17.4-2.8c-3.4-0.8-6.9-1.7-10.4-2.8
					c0,0,0,0-0.1,0c-1.8,0.4-3.7,0.6-5.7,0.6c-0.7,0-1.4,0-2.1-0.1c1.5,1.5,3,3.1,4.5,4.5c4.2,4,8.6,7.7,13.2,11.1
					c7.9,5.8,16.3,10.7,25.1,14.5c3.2,1.4,6.5,2.7,9.9,3.8c2.5,0.8,5.2,0.2,7.1-1.8c4.5-4.7,8.4-9.9,11.7-15.6
					c0.3-0.5,0.6-1,0.8-1.4c2.9-5.2-1.2-11.5-6.9-10.7C484.3,192.9,484.3,192.9,484.2,193z"/>
				<path class="st0" d="M502.4,159.6c-0.1-6.1-6.8-9.4-11.5-5.7c0,0-0.1,0.1-0.1,0.1c-7.8,6.3-16.4,11.7-25.5,16.1
					c-5.3,2.6-10.8,4.8-16.4,6.7c-2.6,0.9-5.3,1.7-7.9,2.4c-1.9,2.3-4.2,4.2-6.8,5.8c1.3,0.3,2.6,0.7,3.9,1
					c5.6,1.3,11.2,2.2,16.8,2.7c9.6,0.9,19.3,0.7,28.7-0.6c3.7-0.5,7.4-1.2,11.1-2c2.7-0.6,4.8-2.8,5.5-5.6
					c1.4-6.1,2.1-12.4,2.2-18.8c0-0.3,0-0.6,0-0.9C502.4,160.3,502.4,160,502.4,159.6z"/>
				<g>
					<path class="st0" d="M491.1,117.4c-0.3-0.6-0.7-1.2-1-1.8c-3-5-10-4.3-12.2,1.1c0,0,0,0.1,0,0.1c-3.8,9.5-8.6,18.7-14.4,27.2
						c-3.3,5-7,9.8-11,14.3c-1.6,1.8-3.3,3.7-5,5.4c-0.3,3.2-1.2,6.2-2.5,8.9c0.8-0.3,1.6-0.5,2.5-0.8c5.4-1.8,10.7-4,15.8-6.4
						c8.7-4.2,17-9.5,24.6-15.5c3-2.4,5.9-5,8.7-7.7c2-1.9,2.8-4.8,2-7.5C496.7,128.8,494.2,122.9,491.1,117.4z"/>
				</g>
				<g>
					<path class="st0" d="M459.4,85.6c-0.5-0.3-1.1-0.6-1.6-0.9c-4.4-2.4-9.5,1.5-8.9,6.7c0,0,0,0.1,0,0.1
						c1.3,10.2,1.5,20.7,0.6,31.1c-0.5,6.1-1.4,12.2-2.7,18.2c-0.5,2.6-1.1,5.1-1.8,7.7c1,2.1,1.7,4.3,2.1,6.6
						c0.7,0.2,0.8,0.2,1.5,0.4c4-4.5,7.7-9.3,11-14.3c5.5-8.2,10.2-17.1,13.9-26.3c1.4-3.5,2.6-7.1,3.7-10.7
						c0.8-2.5,0.1-5.1-1.8-6.9C470.6,92.8,465.2,88.8,459.4,85.6z"/>
				</g>
				<g>
					<path class="st0" d="M427.1,111.3c2.4,5.5,4.6,11.3,6.4,17.2c0.9,3,1.7,6.1,2.5,9.2c1.6,1.1,3,2.4,4.3,3.8
						c0.9-0.3,0.8-0.2,1.7-0.5c1.3-6.2,2.3-12.5,2.8-18.7c0.9-10,0.7-20.1-0.6-30c-0.4-3.5-1-7-1.7-10.5c-0.4-2-1.9-3.6-3.8-4.1
						c-5.8-1.3-11.7-2-17.6-2c-1.3,0-2.7,0-4.1,0.1c-0.5,0-1,0.1-1.5,0.1c-4.2,0.3-6.3,5.3-3.7,8.8c0,0,0,0.1,0.1,0.1
						C417.8,92.8,422.9,101.8,427.1,111.3z"/>
				</g>
				<g>
					<path class="st0" d="M416,124.7c2.6,2.5,5.2,5.1,7.6,7.8c0.1,0.1,0.3,0.3,0.4,0.4c2.2,0.3,4.3,0.8,6.2,1.5
						c-0.4-1.5-0.9-3.1-1.3-4.6c-1.7-5.7-3.8-11.2-6.1-16.6c-4-9.2-9-17.8-14.8-25.7c-1.8-2.5-3.7-4.9-5.7-7.3
						c-1.1-1.3-2.8-1.8-4.4-1.3c-7.6,2.4-14.8,5.9-21.5,10.5c-0.4,0.2-0.7,0.5-1.1,0.7c-2.8,2-2.3,6.5,0.8,7.8c0,0,0,0,0.1,0
						c9.1,4,17.9,9,26,15C407.1,116.7,411.7,120.6,416,124.7z"/>
				</g>
			</g>
			<path class="st0" d="M675.7,76.5c-24.2,50.7-48.4,101.4-72.6,152.1c5.8,0,11.6,0,17.4,0c-24.2-50.7-48.4-101.4-72.6-152.1
				c-5.8-12.2-23.2-1.5-17.4,10.7c24.2,50.7,48.4,101.4,72.6,152.1c3.3,6.9,14.1,6.9,17.4,0c24.2-50.7,48.4-101.4,72.6-152.1
				C698.9,75,681.5,64.3,675.7,76.5L675.7,76.5z"/>
			<path class="st0" d="M860.1,170.6c-8.7,38.1-47.1,61.1-83,48.8c-34.4-11.8-48.1-53.2-36.2-87.1c11.8-33.6,48.3-49.3,79.8-36
				c27.5,11.6,39.3,39.2,39.1,68.5c-0.2,23-0.4,46-0.6,69.1c-0.1,13.6,20.1,13.6,20.2,0c0.2-24.6,0.5-49.1,0.6-73.7
				c0.1-40.3-24.6-77.7-62.9-87.3c-40.8-10.2-81.5,12.6-95.6,53.8c-14.5,42.2,2.9,92.1,43.1,110.1c47.2,21.2,103.1-8.6,115-60.6
				C882.5,163,863.1,157.3,860.1,170.6L860.1,170.6z"/>
			<path class="st0" d="M620.4,239.2c24.2-50.7,48.4-101.4,72.6-152.1c5.8-12.1-11.6-22.8-17.4-10.7
				c-24.2,50.7-48.4,101.4-72.6,152.1C597.2,240.7,614.6,251.4,620.4,239.2L620.4,239.2z"/>
			<path class="st0" d="M859.9,170.7c-6.8,30.8-32.2,53.4-62.9,52.7c-28.8-0.6-56.5-24-59.8-54.7c-1.4-13.4-21.6-13.5-20.2,0
				c4.4,41.3,37.3,73.1,76.9,75.7c40.3,2.6,76.5-27.4,85.4-68.1C882.2,163.1,862.8,157.4,859.9,170.7L859.9,170.7z"/>
		</g>
	</g>
</g>
</svg>
